<?xml version="1.0" encoding="UTF-8"?>
<svg width="100px" height="130px" viewBox="0 0 100 130" version="1.1" xmlns="http://www.w3.org/2000/svg" xmlns:xlink="http://www.w3.org/1999/xlink">
    <!-- Generator: Sketch 55.2 (78181) - https://sketchapp.com -->
    <title>Card2-S</title>
    <desc>Created with Sketch.</desc>
    <g id="Card2-S" stroke="none" stroke-width="1" fill="none" fill-rule="evenodd">
        <rect id="Rectangle" fill="#F0F0F0" x="0" y="0" width="100" height="130" rx="5"></rect>
        <g id="Suits/Spade" transform="translate(4.000000, 3.000000)" fill="#404040">
            <path d="M5.49346615,1.07448081 C5.42556921,0.86762375 5.397145,0.701383337 5.40819352,0.575759572 C5.41924204,0.450135807 5.47916617,0.25821595 5.58796593,2.04281037e-14 L4.31877757,2.04281037e-14 C4.4184874,0.261850244 4.47857529,0.453770101 4.49904124,0.575759572 C4.51950719,0.697749043 4.51950719,0.863989456 4.49904124,1.07448081 C2.61314782,0.643513213 1.48072472,0.871319824 1.10177194,1.75790065 C0.516067677,3.12818791 1.76322112,5.70959787 4.84323227,9.50213051 C8.14053516,5.39523566 9.49570939,2.81382571 8.90875497,1.75790065 C8.32180054,0.701975586 7.18337093,0.474168974 5.49346615,1.07448081 Z" id="Path-2" transform="translate(5.001598, 4.751065) rotate(-180.000000) translate(-5.001598, -4.751065) "></path>
        </g>
        <text id="2" font-family="Copperplate-Light, Copperplate" font-size="20" font-weight="300" letter-spacing="-2" fill="#404040">
            <tspan x="14" y="13">2</tspan>
        </text>
        <g id="Group" transform="translate(86.500000, 118.000000) scale(-1, -1) translate(-86.500000, -118.000000) translate(76.000000, 108.000000)" fill="#404040">
            <g id="Suits/Spade" transform="translate(0.000000, 5.000000)">
                <path d="M5.49346615,1.07448081 C5.42556921,0.86762375 5.397145,0.701383337 5.40819352,0.575759572 C5.41924204,0.450135807 5.47916617,0.25821595 5.58796593,2.04281037e-14 L4.31877757,2.04281037e-14 C4.4184874,0.261850244 4.47857529,0.453770101 4.49904124,0.575759572 C4.51950719,0.697749043 4.51950719,0.863989456 4.49904124,1.07448081 C2.61314782,0.643513213 1.48072472,0.871319824 1.10177194,1.75790065 C0.516067677,3.12818791 1.76322112,5.70959787 4.84323227,9.50213051 C8.14053516,5.39523566 9.49570939,2.81382571 8.90875497,1.75790065 C8.32180054,0.701975586 7.18337093,0.474168974 5.49346615,1.07448081 Z" id="Path-2" transform="translate(5.001598, 4.751065) rotate(-180.000000) translate(-5.001598, -4.751065) "></path>
            </g>
            <text id="2" font-family="Copperplate-Light, Copperplate" font-size="20" font-weight="300" letter-spacing="-2">
                <tspan x="10" y="15">2</tspan>
            </text>
        </g>
        <g id="Suits/Spade" transform="translate(41.000000, 56.000000)" fill="#404040">
            <path d="M9.88823907,1.93406546 C9.76602459,1.56172275 9.71486101,1.26249001 9.73474834,1.03636723 C9.75463567,0.810244453 9.86249911,0.46478871 10.0583387,2.04281037e-14 L7.77379963,2.04281037e-14 C7.95327732,0.471330439 8.06143552,0.816786182 8.09827423,1.03636723 C8.13511294,1.25594828 8.13511294,1.55518102 8.09827423,1.93406546 C4.70366608,1.15832378 2.6653045,1.56837568 1.9831895,3.16422116 C0.928921819,5.63073824 3.17379802,10.2772762 8.71781809,17.1038349 C14.6529633,9.71142419 17.0922769,5.06488627 16.0357589,3.16422116 C14.979241,1.26355605 12.9300677,0.853504154 9.88823907,1.93406546 Z" id="Path-2" transform="translate(9.002876, 8.551917) rotate(-180.000000) translate(-9.002876, -8.551917) "></path>
        </g>
    </g>
</svg>